%TF.GenerationSoftware,KiCad,Pcbnew,(5.1.9-0-10_14)*%
%TF.CreationDate,2022-04-10T09:01:30+01:00*%
%TF.ProjectId,ElectronUserPortCartridge,456c6563-7472-46f6-9e55-736572506f72,rev?*%
%TF.SameCoordinates,Original*%
%TF.FileFunction,Legend,Bot*%
%TF.FilePolarity,Positive*%
%FSLAX46Y46*%
G04 Gerber Fmt 4.6, Leading zero omitted, Abs format (unit mm)*
G04 Created by KiCad (PCBNEW (5.1.9-0-10_14)) date 2022-04-10 09:01:30*
%MOMM*%
%LPD*%
G01*
G04 APERTURE LIST*
%ADD10C,0.150000*%
G04 APERTURE END LIST*
D10*
X123180190Y-77176380D02*
X122608761Y-77176380D01*
X122894476Y-78176380D02*
X122894476Y-77176380D01*
X122275428Y-78176380D02*
X122275428Y-77176380D01*
X122275428Y-77652571D02*
X121704000Y-77652571D01*
X121704000Y-78176380D02*
X121704000Y-77176380D01*
X121227809Y-78176380D02*
X121227809Y-77176380D01*
X120799238Y-78128761D02*
X120656380Y-78176380D01*
X120418285Y-78176380D01*
X120323047Y-78128761D01*
X120275428Y-78081142D01*
X120227809Y-77985904D01*
X120227809Y-77890666D01*
X120275428Y-77795428D01*
X120323047Y-77747809D01*
X120418285Y-77700190D01*
X120608761Y-77652571D01*
X120704000Y-77604952D01*
X120751619Y-77557333D01*
X120799238Y-77462095D01*
X120799238Y-77366857D01*
X120751619Y-77271619D01*
X120704000Y-77224000D01*
X120608761Y-77176380D01*
X120370666Y-77176380D01*
X120227809Y-77224000D01*
X119084952Y-78128761D02*
X118942095Y-78176380D01*
X118704000Y-78176380D01*
X118608761Y-78128761D01*
X118561142Y-78081142D01*
X118513523Y-77985904D01*
X118513523Y-77890666D01*
X118561142Y-77795428D01*
X118608761Y-77747809D01*
X118704000Y-77700190D01*
X118894476Y-77652571D01*
X118989714Y-77604952D01*
X119037333Y-77557333D01*
X119084952Y-77462095D01*
X119084952Y-77366857D01*
X119037333Y-77271619D01*
X118989714Y-77224000D01*
X118894476Y-77176380D01*
X118656380Y-77176380D01*
X118513523Y-77224000D01*
X118084952Y-78176380D02*
X118084952Y-77176380D01*
X117608761Y-78176380D02*
X117608761Y-77176380D01*
X117370666Y-77176380D01*
X117227809Y-77224000D01*
X117132571Y-77319238D01*
X117084952Y-77414476D01*
X117037333Y-77604952D01*
X117037333Y-77747809D01*
X117084952Y-77938285D01*
X117132571Y-78033523D01*
X117227809Y-78128761D01*
X117370666Y-78176380D01*
X117608761Y-78176380D01*
X116608761Y-77652571D02*
X116275428Y-77652571D01*
X116132571Y-78176380D02*
X116608761Y-78176380D01*
X116608761Y-77176380D01*
X116132571Y-77176380D01*
X114608761Y-77652571D02*
X114942095Y-77652571D01*
X114942095Y-78176380D02*
X114942095Y-77176380D01*
X114465904Y-77176380D01*
X114132571Y-77890666D02*
X113656380Y-77890666D01*
X114227809Y-78176380D02*
X113894476Y-77176380D01*
X113561142Y-78176380D01*
X112656380Y-78081142D02*
X112704000Y-78128761D01*
X112846857Y-78176380D01*
X112942095Y-78176380D01*
X113084952Y-78128761D01*
X113180190Y-78033523D01*
X113227809Y-77938285D01*
X113275428Y-77747809D01*
X113275428Y-77604952D01*
X113227809Y-77414476D01*
X113180190Y-77319238D01*
X113084952Y-77224000D01*
X112942095Y-77176380D01*
X112846857Y-77176380D01*
X112704000Y-77224000D01*
X112656380Y-77271619D01*
X112227809Y-78176380D02*
X112227809Y-77176380D01*
X111751619Y-78176380D02*
X111751619Y-77176380D01*
X111180190Y-78176380D01*
X111180190Y-77176380D01*
X110180190Y-77224000D02*
X110275428Y-77176380D01*
X110418285Y-77176380D01*
X110561142Y-77224000D01*
X110656380Y-77319238D01*
X110704000Y-77414476D01*
X110751619Y-77604952D01*
X110751619Y-77747809D01*
X110704000Y-77938285D01*
X110656380Y-78033523D01*
X110561142Y-78128761D01*
X110418285Y-78176380D01*
X110323047Y-78176380D01*
X110180190Y-78128761D01*
X110132571Y-78081142D01*
X110132571Y-77747809D01*
X110323047Y-77747809D01*
X108608761Y-77652571D02*
X108942095Y-77652571D01*
X108942095Y-78176380D02*
X108942095Y-77176380D01*
X108465904Y-77176380D01*
X107513523Y-78176380D02*
X107846857Y-77700190D01*
X108084952Y-78176380D02*
X108084952Y-77176380D01*
X107704000Y-77176380D01*
X107608761Y-77224000D01*
X107561142Y-77271619D01*
X107513523Y-77366857D01*
X107513523Y-77509714D01*
X107561142Y-77604952D01*
X107608761Y-77652571D01*
X107704000Y-77700190D01*
X108084952Y-77700190D01*
X106894476Y-77176380D02*
X106704000Y-77176380D01*
X106608761Y-77224000D01*
X106513523Y-77319238D01*
X106465904Y-77509714D01*
X106465904Y-77843047D01*
X106513523Y-78033523D01*
X106608761Y-78128761D01*
X106704000Y-78176380D01*
X106894476Y-78176380D01*
X106989714Y-78128761D01*
X107084952Y-78033523D01*
X107132571Y-77843047D01*
X107132571Y-77509714D01*
X107084952Y-77319238D01*
X106989714Y-77224000D01*
X106894476Y-77176380D01*
X106037333Y-78176380D02*
X106037333Y-77176380D01*
X105465904Y-78176380D01*
X105465904Y-77176380D01*
X105132571Y-77176380D02*
X104561142Y-77176380D01*
X104846857Y-78176380D02*
X104846857Y-77176380D01*
X103275428Y-77176380D02*
X103084952Y-77176380D01*
X102989714Y-77224000D01*
X102894476Y-77319238D01*
X102846857Y-77509714D01*
X102846857Y-77843047D01*
X102894476Y-78033523D01*
X102989714Y-78128761D01*
X103084952Y-78176380D01*
X103275428Y-78176380D01*
X103370666Y-78128761D01*
X103465904Y-78033523D01*
X103513523Y-77843047D01*
X103513523Y-77509714D01*
X103465904Y-77319238D01*
X103370666Y-77224000D01*
X103275428Y-77176380D01*
X102084952Y-77652571D02*
X102418285Y-77652571D01*
X102418285Y-78176380D02*
X102418285Y-77176380D01*
X101942095Y-77176380D01*
X100227809Y-78081142D02*
X100275428Y-78128761D01*
X100418285Y-78176380D01*
X100513523Y-78176380D01*
X100656380Y-78128761D01*
X100751619Y-78033523D01*
X100799238Y-77938285D01*
X100846857Y-77747809D01*
X100846857Y-77604952D01*
X100799238Y-77414476D01*
X100751619Y-77319238D01*
X100656380Y-77224000D01*
X100513523Y-77176380D01*
X100418285Y-77176380D01*
X100275428Y-77224000D01*
X100227809Y-77271619D01*
X99608761Y-77176380D02*
X99418285Y-77176380D01*
X99323047Y-77224000D01*
X99227809Y-77319238D01*
X99180190Y-77509714D01*
X99180190Y-77843047D01*
X99227809Y-78033523D01*
X99323047Y-78128761D01*
X99418285Y-78176380D01*
X99608761Y-78176380D01*
X99704000Y-78128761D01*
X99799238Y-78033523D01*
X99846857Y-77843047D01*
X99846857Y-77509714D01*
X99799238Y-77319238D01*
X99704000Y-77224000D01*
X99608761Y-77176380D01*
X98751619Y-78176380D02*
X98751619Y-77176380D01*
X98418285Y-77890666D01*
X98084952Y-77176380D01*
X98084952Y-78176380D01*
X97608761Y-78176380D02*
X97608761Y-77176380D01*
X97227809Y-77176380D01*
X97132571Y-77224000D01*
X97084952Y-77271619D01*
X97037333Y-77366857D01*
X97037333Y-77509714D01*
X97084952Y-77604952D01*
X97132571Y-77652571D01*
X97227809Y-77700190D01*
X97608761Y-77700190D01*
X96608761Y-77176380D02*
X96608761Y-77985904D01*
X96561142Y-78081142D01*
X96513523Y-78128761D01*
X96418285Y-78176380D01*
X96227809Y-78176380D01*
X96132571Y-78128761D01*
X96084952Y-78081142D01*
X96037333Y-77985904D01*
X96037333Y-77176380D01*
X95704000Y-77176380D02*
X95132571Y-77176380D01*
X95418285Y-78176380D02*
X95418285Y-77176380D01*
X94799238Y-77652571D02*
X94465904Y-77652571D01*
X94323047Y-78176380D02*
X94799238Y-78176380D01*
X94799238Y-77176380D01*
X94323047Y-77176380D01*
X93323047Y-78176380D02*
X93656380Y-77700190D01*
X93894476Y-78176380D02*
X93894476Y-77176380D01*
X93513523Y-77176380D01*
X93418285Y-77224000D01*
X93370666Y-77271619D01*
X93323047Y-77366857D01*
X93323047Y-77509714D01*
X93370666Y-77604952D01*
X93418285Y-77652571D01*
X93513523Y-77700190D01*
X93894476Y-77700190D01*
M02*
