M48
; DRILL file {KiCad (5.1.9-0-10_14)} date Sunday, April 10, 2022 at 09:01:34 AM
; FORMAT={-:-/ absolute / inch / decimal}
; #@! TF.CreationDate,2022-04-10T09:01:34+01:00
; #@! TF.GenerationSoftware,Kicad,Pcbnew,(5.1.9-0-10_14)
FMAT,2
INCH
T1C0.0157
T2C0.0276
T3C0.0315
T4C0.0394
T5C0.1059
T6C0.1063
%
G90
G05
T1
X2.35Y-4.5
X2.41Y-4.36
X2.45Y-3.04
X2.45Y-3.24
X2.45Y-3.34
X2.45Y-3.44
X2.45Y-3.54
X2.45Y-3.64
X2.45Y-3.74
X2.45Y-3.84
X2.47Y-4.54
X2.51Y-4.52
X2.55Y-4.5
X2.62Y-3.54
X2.62Y-4.77
X2.63Y-4.57
X2.66Y-3.74
X2.69Y-3.04
X2.7Y-4.36
X2.72Y-4.75
X2.92Y-4.6
X2.92Y-4.75
X3.02Y-4.75
X3.04Y-4.57
X3.05Y-2.75
X3.05Y-2.85
X3.07Y-4.77
X3.08Y-4.56
X3.09Y-3.43
X3.09Y-3.49
X3.09Y-3.84
X3.11Y-4.75
X3.12Y-4.39
X3.14Y-3.43
X3.14Y-3.52
X3.14Y-3.59
X3.14Y-4.0
X3.1401Y-4.3501
X3.16Y-4.31
X3.17Y-4.04
X3.19Y-3.43
X3.19Y-3.55
X3.19Y-4.27
X3.2Y-4.08
X3.23Y-4.63
X3.26Y-3.69
X3.26Y-3.79
X3.26Y-3.89
X3.33Y-3.51
X3.33Y-3.51
X3.36Y-3.48
X3.39Y-3.45
X3.42Y-3.42
X3.44Y-4.2
X3.62Y-4.33
X3.65Y-4.3
X3.68Y-4.27
X3.71Y-4.24
X3.97Y-4.62
X3.97Y-4.79
X4.02Y-4.29
X4.07Y-4.29
X4.12Y-4.29
X4.17Y-4.29
X4.41Y-4.54
X4.44Y-4.51
X4.47Y-4.18
X4.47Y-4.48
X4.47Y-4.79
X4.48Y-3.63
X4.51Y-4.2
X4.55Y-4.22
X4.62Y-4.79
X4.72Y-4.76
X4.96Y-4.3
X5.0Y-2.89
X5.03Y-4.33
X5.09Y-3.47
X5.11Y-2.56
X5.16Y-2.56
X5.16Y-4.29
X5.25Y-2.97
X5.35Y-2.97
X5.41Y-3.61
X5.44Y-4.06
X6.16Y-3.53
T2
X6.0Y-4.48
X6.3Y-4.48
T3
X2.25Y-2.94
X2.25Y-3.04
X2.25Y-3.14
X2.25Y-3.24
X2.25Y-3.34
X2.25Y-3.44
X2.25Y-3.54
X2.25Y-3.64
X2.25Y-3.74
X2.25Y-3.84
X2.25Y-3.94
X2.25Y-4.04
X2.25Y-4.14
X2.25Y-4.24
X2.55Y-2.71
X2.85Y-2.71
X2.85Y-2.94
X2.85Y-3.04
X2.85Y-3.14
X2.85Y-3.24
X2.85Y-3.34
X2.85Y-3.44
X2.85Y-3.54
X2.85Y-3.64
X2.85Y-3.74
X2.85Y-3.84
X2.85Y-3.94
X2.85Y-4.04
X2.85Y-4.14
X2.85Y-4.24
X3.22Y-2.94
X3.22Y-3.0384
X3.5Y-2.78
X3.5Y-3.38
X3.6Y-2.78
X3.6Y-3.38
X3.69Y-3.88
X3.69Y-4.18
X3.7Y-2.78
X3.7Y-3.38
X3.79Y-3.88
X3.79Y-4.18
X3.8Y-2.78
X3.8Y-3.38
X3.89Y-3.88
X3.89Y-4.18
X3.9Y-2.78
X3.9Y-3.38
X3.99Y-3.88
X3.99Y-4.18
X4.0Y-2.78
X4.0Y-3.38
X4.09Y-3.88
X4.09Y-4.18
X4.1Y-2.78
X4.1Y-3.38
X4.19Y-3.88
X4.19Y-4.18
X4.2Y-2.78
X4.2Y-3.38
X4.29Y-3.88
X4.29Y-4.18
X4.3Y-2.78
X4.3Y-3.38
X4.39Y-3.88
X4.39Y-4.18
X4.4Y-2.78
X4.4Y-3.38
X4.5Y-2.78
X4.5Y-3.38
X4.6Y-2.78
X4.6Y-3.38
X4.7Y-2.78
X4.7Y-3.38
X4.8Y-2.78
X4.8Y-3.38
X4.9Y-2.78
X4.9Y-3.38
X5.0Y-2.78
X5.0Y-3.38
X5.01Y-3.56
X5.01Y-3.66
X5.01Y-3.76
X5.01Y-3.86
X5.01Y-3.96
X5.01Y-4.06
X5.01Y-4.16
X5.1Y-2.78
X5.1Y-3.38
X5.2Y-2.78
X5.2Y-3.38
X5.3Y-2.78
X5.3Y-3.38
X5.3Y-4.3631
X5.3Y-4.56
X5.31Y-3.56
X5.31Y-3.66
X5.31Y-3.76
X5.31Y-3.86
X5.31Y-3.96
X5.31Y-4.06
X5.31Y-4.16
X5.4Y-2.78
X5.4Y-3.38
X5.49Y-4.32
X5.49Y-4.62
X5.87Y-2.85
X5.87Y-3.15
X5.87Y-3.34
X5.87Y-3.64
X5.87Y-3.83
X5.87Y-4.13
X5.87Y-4.32
X5.87Y-4.62
X5.97Y-2.85
X5.97Y-3.15
X5.97Y-3.34
X5.97Y-3.64
X5.97Y-3.83
X5.97Y-4.13
X5.97Y-4.32
X5.97Y-4.62
X6.07Y-2.85
X6.07Y-3.15
X6.07Y-3.34
X6.07Y-3.64
X6.07Y-3.83
X6.07Y-4.13
X6.07Y-4.32
X6.07Y-4.62
X6.17Y-2.85
X6.17Y-3.15
X6.17Y-3.34
X6.17Y-3.64
X6.17Y-3.83
X6.17Y-4.13
X6.17Y-4.32
X6.17Y-4.62
X6.27Y-2.85
X6.27Y-3.15
X6.27Y-3.34
X6.27Y-3.64
X6.27Y-3.83
X6.27Y-4.13
X6.27Y-4.32
X6.27Y-4.62
X6.37Y-2.85
X6.37Y-3.15
X6.37Y-3.34
X6.37Y-3.64
X6.37Y-3.83
X6.37Y-4.13
X6.37Y-4.32
X6.37Y-4.62
X6.47Y-2.85
X6.47Y-3.15
X6.47Y-3.34
X6.47Y-3.64
X6.47Y-3.83
X6.47Y-4.13
X6.47Y-4.32
X6.47Y-4.62
T4
X2.23Y-2.55
X2.23Y-2.65
X2.23Y-2.75
X2.41Y-2.55
X2.41Y-2.65
X2.41Y-2.75
X2.99Y-2.36
X2.99Y-2.46
X3.09Y-2.36
X3.09Y-2.46
X3.12Y-3.24
X3.19Y-2.36
X3.19Y-2.46
X3.29Y-2.36
X3.29Y-2.46
X3.3169Y-3.24
X3.39Y-2.36
X3.39Y-2.46
X3.49Y-2.36
X3.49Y-2.46
X3.51Y-3.9431
X3.51Y-4.14
X3.59Y-2.36
X3.59Y-2.46
X3.69Y-2.36
X3.69Y-2.46
X3.69Y-3.63
X3.69Y-3.73
X3.79Y-2.36
X3.79Y-2.46
X3.79Y-3.63
X3.79Y-3.73
X3.89Y-2.36
X3.89Y-2.46
X3.89Y-3.63
X3.89Y-3.73
X3.99Y-3.63
X3.99Y-3.73
X4.09Y-3.63
X4.09Y-3.73
X4.19Y-3.63
X4.19Y-3.73
X4.29Y-3.63
X4.29Y-3.73
X4.39Y-3.63
X4.39Y-3.73
X4.86Y-3.75
X4.86Y-3.9469
X5.11Y-2.36
X5.11Y-2.46
X5.21Y-2.36
X5.21Y-2.46
X5.31Y-2.36
X5.31Y-2.46
X5.41Y-2.36
X5.41Y-2.46
X5.51Y-2.36
X5.51Y-2.46
X5.61Y-2.36
X5.61Y-2.46
X5.68Y-2.9031
X5.68Y-3.1
X5.68Y-3.3931
X5.68Y-3.59
X5.68Y-3.8831
X5.68Y-4.08
X5.68Y-4.3731
X5.68Y-4.57
X5.71Y-2.36
X5.71Y-2.46
X5.81Y-2.36
X5.81Y-2.46
X5.91Y-2.36
X5.91Y-2.46
X6.01Y-2.36
X6.01Y-2.46
T5
X2.7575Y-2.3891
X4.1225Y-2.3891
X4.8775Y-2.3891
X6.2425Y-2.3891
T6
X2.2Y-2.2
X6.8Y-2.2
X6.8Y-4.44
T0
M30
